# xmcd CD database file
#
# Track frame offsets:
#	150
#	19785
#	35928
#	59598
#	75010
#	92008
#	114805
#	129970
#	148935
#	166395
#	177285
#	195243
#	210758
#
# Disc length: 3083 seconds
#
# Revision: 2
# Processed by: cddbd v1.5.1PL0 Copyright (c) Steve Scherf et al.
# Submitted via: CDex 1.51
#
DISCID=9f0c090d
DTITLE=Nisse Hellberg and Peps Persson - Röster från Södern
DYEAR=1994
DGENRE=Blues
TTITLE0=En man steg av båten
TTITLE1=Det  är nå't magiskt med dej
TTITLE2=Explosiv
TTITLE3=Skuggan bakom dej
TTITLE4=M/S Colinda
TTITLE5=Herr Blues hälsar på
TTITLE6=Blues Cocktail
TTITLE7=Blondin på villovägar
TTITLE8=Stjärnan i mitt liv
TTITLE9=Rum nr. 5
TTITLE10=Blues ABC
TTITLE11=Kasino blues
TTITLE12=Ge mej lite harmoni
EXTD=Text and musik - Nisse Hellberg\n\nNisse Hellberg - Sång and Sologitarr\nPeps Persson - Sång, munspel and gitarr\nNikke Ström - Bas\nHåkan Nyberg - Trummor\nJanne Erlandsson - Tenorsaxofon\nJonas Palm - Barytonsaxofon\n\nProducerad av Nisse Hellberg YEAR:
EXTD=1994
EXTT0=
EXTT1=Magnus Persson - Percussion\nEbba Forsberg, Maria Blom - Kör\nNisse Hellberg - Munspel
EXTT2=Peps Persson - Sång
EXTT3=
EXTT4=Janne Erlandsson - Kör\nBernt Andersson - Dragspel
EXTT5=Peps Persson - Sång
EXTT6=Jonas Palm - Tenorsaxofon
EXTT7=Jonas Palm - Tenorsaxofon
EXTT8=Peps Persson - Sång\nJonas Palm - tenorsaxofon
EXTT9=
EXTT10=Peps Persson - Sång
EXTT11=
EXTT12=
PLAYORDER=
